<svg width="1024" height="1024" xmlns="http://www.w3.org/2000/svg" t="1697948355782" class="icon" version="1.1" p-id="1848">
 <g>
  <title>xstar1</title>
  <ellipse stroke-opacity="0" fill="#aad4ff" stroke="#000000" cx="512" cy="512" id="x1" rx="512" ry="512"/>
  <ellipse fill="#5680e9" stroke="null" cx="512" cy="512" id="x2" rx="480" ry="480"/>
  <path d="m592.12642,633.90152l-0.87719,-24.06003l18.24553,-15.71421c119.14731,-102.73135 166.91651,-226.76585 150.27498,-329.87314c-103.98447,-16.91722 -229.02149,30.47604 -331.40196,149.57323l-15.46359,17.9949l-23.73422,-0.55138c-35.5888,-0.82706 -65.7641,7.51876 -95.68877,27.64398l111.40298,74.68637l-22.30566,40.25044c-5.36338,9.67414 -0.32581,31.32818 17.09265,48.67145c17.3934,17.34327 39.59881,22.55628 48.94714,17.54377l40.15019,-21.60391l75.01218,112.40549c21.25303,-30.62642 29.64898,-60.90197 28.32067,-96.99203l0.02506,0.02506l0.00001,0.00001zm203.48276,-413.20608l6.16538,1.57894l1.55388,6.11526c27.89461,104.66116 -0.6015,265.3371 -161.12706,403.68232c2.38094,65.38816 -20.80191,117.66862 -74.78662,171.45283l-9.27314,9.22301l-85.76401,-128.54576c-30.10011,16.21546 -75.68887,6.11526 -108.09473,-26.16529c-32.45599,-32.33068 -42.55619,-77.744 -25.56379,-108.4456l-127.46807,-85.46326l9.24808,-9.19795c52.48096,-52.28045 104.98698,-75.28787 169.84883,-73.78411c138.09459,-160.62581 300.19909,-188.16954 405.26126,-160.45037l-0.00001,-0.00002zm-458.04296,463.68203c16.7919,16.7919 13.13277,46.71657 -7.36838,67.21773c-27.01742,27.04248 -98.94691,39.09756 -98.94691,39.09756s14.88715,-74.68636 39.14769,-98.92184c20.50116,-20.50116 50.32558,-24.26054 67.16761,-7.39345l-0.00001,0z" fill="#ffffff" p-id="1849" id="x3" stroke="null"/>
  <path transform="rotate(-45 604 418)" stroke="null" id="x4" p-id="11965" fill="#ffffff" d="m663.03589,401.03573c-23.24117,0 -42.0716,-18.83043 -42.0716,-42.0716c0,-9.36432 -7.60003,-16.96436 -16.96436,-16.96436s-16.96436,7.60003 -16.96436,16.96436c0,23.24117 -18.83043,42.0716 -42.0716,42.0716c-9.36432,0 -16.96436,7.60003 -16.96436,16.96436s7.60003,16.96436 16.96436,16.96436c23.24117,0 42.0716,18.83043 42.0716,42.0716c0,9.36432 7.60003,16.96436 16.96436,16.96436s16.96436,-7.60003 16.96436,-16.96436c0,-23.24117 18.83043,-42.0716 42.0716,-42.0716c9.36432,0 16.96436,-7.60003 16.96436,-16.96436s-7.60003,-16.96436 -16.96436,-16.96436z"/>
 </g>

</svg>