<svg width="1024" height="1024" xmlns="http://www.w3.org/2000/svg" p-id="1848" version="1.1" class="icon" t="1697948355782">
 <g>
  <title>xstar1</title>
  <defs>
   <radialGradient fy="0.2" fx="0.8" r="0.9" cy="0.6" cx="0.4" id="rg1">
    <stop stop-color="#5680E9" offset="0%"/>
    <stop stop-color="#962da4" offset="100%"/>
   </radialGradient>
  </defs>
  <ellipse ry="512" rx="512" id="x2" cy="512" cx="512" stroke="null" fill="url(#rg1)"/>
  <path id="x3" p-id="1849" fill="#ffffff" d="m601.45124,648.08796l-0.97927,-26.86005l20.36888,-17.54297c133.01323,-114.68684 186.34163,-253.15602 167.76342,-368.26255c-116.0858,-18.88598 -255.67416,34.02273 -369.96929,166.98001l-17.26319,20.08908l-26.49632,-0.61555c-39.73049,-0.92331 -73.41748,8.39377 -106.82467,30.86108l124.36764,83.37809l-24.90151,44.93464c-5.98755,10.79998 -0.36373,34.97404 19.08183,54.33565c19.41758,19.36162 44.20717,25.1813 54.64343,19.58545l44.82272,-24.11809l83.74182,125.48682c23.72638,-34.19061 33.09942,-67.98951 31.61652,-108.2796l0.02798,0.02798l0.00001,0.00001zm227.16333,-461.29347l6.88288,1.76269l1.73471,6.82693c31.14088,116.84124 -0.6715,296.21604 -179.87843,450.66137c2.65802,72.99779 -23.22276,131.36246 -83.49001,191.40587l-10.35231,10.29635l-95.74491,-143.50544c-33.60305,18.10255 -84.49726,6.82693 -120.67439,-29.21031c-36.2331,-36.0932 -47.50872,-86.79156 -28.53881,-121.0661l-142.30233,-95.40916l10.32434,-10.26837c58.5885,-58.36465 117.20497,-84.04959 189.61521,-82.37083c154.16552,-179.31884 335.13514,-210.06801 452.42406,-179.12299l-0.00001,-0.00002l0,0.00001zm-511.3483,517.64362c18.74608,18.74608 14.66111,52.15327 -8.22588,75.04028c-30.16161,30.18958 -110.46198,43.64759 -110.46198,43.64759s16.61966,-83.37808 43.70355,-110.434c22.88701,-22.88701 56.18228,-27.08389 74.98433,-8.25387l-0.00001,0l-0.00001,0z" stroke="null"/>
  <path transform="rotate(-45 611.707 411.706)" d="m670.74265,394.74211c-23.24117,0 -42.0716,-18.83043 -42.0716,-42.0716c0,-9.36432 -7.60003,-16.96436 -16.96436,-16.96436s-16.96436,7.60003 -16.96436,16.96436c0,23.24117 -18.83043,42.0716 -42.0716,42.0716c-9.36432,0 -16.96436,7.60003 -16.96436,16.96436s7.60003,16.96436 16.96436,16.96436c23.24117,0 42.0716,18.83043 42.0716,42.0716c0,9.36432 7.60003,16.96436 16.96436,16.96436s16.96436,-7.60003 16.96436,-16.96436c0,-23.24117 18.83043,-42.0716 42.0716,-42.0716c9.36432,0 16.96436,-7.60003 16.96436,-16.96436s-7.60003,-16.96436 -16.96436,-16.96436z" fill="#fcff3e" p-id="11965" id="x4" stroke="null"/>
 </g>
</svg>